<svg width="1600" height="900" viewBox="0 0 1600 900" fill="none" xmlns="http://www.w3.org/2000/svg">
  <defs>
    <linearGradient id="galaxy" x1="0" y1="0" x2="1" y2="1">
      <stop offset="0%" stop-color="#120a2f" />
      <stop offset="45%" stop-color="#2a155b" />
      <stop offset="100%" stop-color="#0b1025" />
    </linearGradient>
    <radialGradient id="flare" cx="0" cy="0" r="1" gradientUnits="userSpaceOnUse" gradientTransform="translate(1150 280) rotate(35) scale(420 300)">
      <stop offset="0%" stop-color="#f5c542" stop-opacity="0.6" />
      <stop offset="55%" stop-color="#f77b2a" stop-opacity="0.2" />
      <stop offset="100%" stop-color="#120a2f" stop-opacity="0" />
    </radialGradient>
    <radialGradient id="nebula" cx="0" cy="0" r="1" gradientUnits="userSpaceOnUse" gradientTransform="translate(420 640) rotate(-10) scale(520 360)">
      <stop offset="0%" stop-color="#6c5ce7" stop-opacity="0.5" />
      <stop offset="60%" stop-color="#302060" stop-opacity="0.35" />
      <stop offset="100%" stop-color="#120a2f" stop-opacity="0" />
    </radialGradient>
  </defs>
  <rect width="1600" height="900" fill="url(#galaxy)" />
  <rect width="1600" height="900" fill="url(#flare)" />
  <rect width="1600" height="900" fill="url(#nebula)" />
  <g fill="#ffffff" opacity="0.65">
    <circle cx="180" cy="160" r="2" />
    <circle cx="320" cy="260" r="1.6" />
    <circle cx="520" cy="120" r="1.8" />
    <circle cx="690" cy="220" r="1.4" />
    <circle cx="840" cy="140" r="1.7" />
    <circle cx="1120" cy="180" r="2" />
    <circle cx="1280" cy="320" r="1.6" />
    <circle cx="1440" cy="220" r="1.3" />
    <circle cx="260" cy="540" r="1.8" />
    <circle cx="480" cy="460" r="1.5" />
    <circle cx="760" cy="520" r="1.9" />
    <circle cx="980" cy="440" r="1.6" />
    <circle cx="1240" cy="500" r="1.4" />
    <circle cx="1380" cy="640" r="1.7" />
    <circle cx="200" cy="760" r="1.4" />
    <circle cx="540" cy="700" r="1.9" />
    <circle cx="920" cy="760" r="1.6" />
    <circle cx="1180" cy="720" r="1.5" />
    <circle cx="1500" cy="780" r="1.7" />
  </g>
</svg>
